<?xml version="1.0" standalone="no"?>
<svg viewBox="0 0 200 200" xmlns="http://www.w3.org/2000/svg">
  <path fill="#000000" d="M28.7,-45.7C37.9,-44.3,46.8,-38.2,53.7,-29.8C60.6,-21.4,65.7,-10.7,67,0.7C68.2,12.1,65.7,24.3,56.9,29.6C48.2,34.9,33.3,33.4,22.8,41.1C12.3,48.8,6.1,65.6,-2.6,70.1C-11.3,74.6,-22.6,66.6,-26.3,55C-30,43.4,-26.2,28.2,-28.1,18.4C-30,8.6,-37.7,4.3,-42.9,-3C-48,-10.3,-50.7,-20.5,-46.5,-26.5C-42.4,-32.4,-31.5,-34.1,-22.6,-35.7C-13.7,-37.3,-6.9,-38.8,1.4,-41.3C9.7,-43.8,19.4,-47.1,28.7,-45.7Z" transform="translate(100 100)" />
</svg>
