<?xml version="1.0" standalone="no"?>
<svg viewBox="0 0 200 200" xmlns="http://www.w3.org/2000/svg">
  <path fill="#000000" d="M28.1,-49.2C39.1,-42.3,52.6,-40.2,60.2,-32.8C67.8,-25.5,69.5,-12.7,66.6,-1.6C63.8,9.5,56.6,19,49.9,27.9C43.2,36.8,37,45.1,28.8,45.4C20.6,45.6,10.3,37.7,-0.3,38.3C-10.9,38.8,-21.9,47.9,-33.4,49.5C-45,51.2,-57.1,45.6,-60,36.1C-62.8,26.6,-56.4,13.3,-57.7,-0.7C-59,-14.8,-68,-29.6,-63.4,-36.1C-58.8,-42.6,-40.6,-40.8,-27.8,-46.7C-15,-52.6,-7.5,-66.3,0.5,-67.2C8.5,-68.1,17.1,-56.2,28.1,-49.2Z" transform="translate(100 100)" />
</svg>
